<svg width="64" height="74" viewBox="0 0 64 74" fill="none" xmlns="http://www.w3.org/2000/svg">
<path d="M16.4186 0.104379C15.8167 0.28876 15.383 0.638113 15.2237 1.0748C15.0909 1.42416 14.9493 2.59837 14.8608 4.18017C14.8254 4.7139 14.6838 6.26658 14.5333 7.62518C14.1881 10.8761 14.1173 13.9524 14.3209 17.0286C14.4979 19.7652 14.4979 20.4639 14.3297 20.823C14.2589 20.9782 13.8695 21.4052 13.4624 21.774C13.0552 22.1524 12.1082 23.2102 11.3559 24.1515C10.6124 25.0831 9.90431 25.8983 9.7981 25.9662C9.69189 26.0342 9.51487 26.0633 9.39096 26.0244C8.97497 25.9177 7.24905 23.2684 6.45247 21.512C6.09844 20.7453 5.84176 19.8331 5.64705 18.7268C5.57624 18.2902 5.04519 17.5817 4.59379 17.3294C3.74411 16.8539 2.46958 17.0868 2.15095 17.7758C2.04474 18.0184 2.02704 18.2319 2.08015 18.7754C2.18636 19.8234 2.37222 20.4251 2.87672 21.2694C3.1334 21.6866 3.77066 22.7929 4.30171 23.7245C5.29301 25.4713 6.14269 26.7911 6.83306 27.6936C7.45262 28.5087 7.44377 28.6446 6.60294 30.4593C5.64705 32.5166 3.42548 38.3586 2.55809 41.1049C1.92968 43.0942 1.51369 45.2874 1.23046 48.0434C1.15081 48.7906 1.05345 49.6834 1.00919 50.0328C0.885279 50.9547 0.911832 52.4588 1.0623 53.6234C1.27472 55.3313 1.35438 56.3405 1.36323 57.4662C1.36323 58.689 1.54909 60.3387 1.79692 61.3382C2.11555 62.6677 2.53154 63.6673 3.97423 66.5785C4.13355 66.8988 4.74426 68.1603 5.31956 69.3928C7.7624 74.5263 8.05448 75.0989 9.15199 77.0106C9.97512 78.4371 12.2409 83.3281 12.418 84.0462C12.4711 84.2597 12.533 84.6382 12.5596 84.8905C12.595 85.2107 12.6835 85.4242 12.8605 85.6183C13.0906 85.8609 13.1437 86.0453 13.365 87.4427C13.6659 89.335 13.7102 90.9556 13.4712 91.7126C13.1968 92.5762 13.1172 93.5467 13.2322 94.6141C13.3207 95.3711 13.3207 95.7786 13.2322 96.5744C13.0021 98.6026 13.0198 98.6996 13.8075 100.592C14.4271 102.067 14.5422 102.29 14.8431 102.504C15.3387 102.853 15.4096 103.134 15.4804 105.056C15.5423 106.774 15.6485 107.53 15.799 107.278C15.8432 107.201 15.8786 105.978 15.8786 104.561C15.8786 102.125 15.8875 101.96 16.0557 101.747C16.2061 101.543 16.2415 101.533 16.3212 101.659C16.3743 101.747 16.4097 103.338 16.4097 105.929C16.4186 109.093 16.4451 110.102 16.5248 110.277L16.6398 110.5L16.746 110.248C16.8522 110.005 17.1974 106.754 17.3833 104.377C17.5161 102.591 17.7993 101.611 18.5959 100.175C18.8525 99.7089 19.2685 99.049 19.5164 98.719C20.0209 98.0397 20.6935 96.6132 20.844 95.8854C21.0653 94.8082 20.9413 93.0615 20.5165 91.3729C20.1713 89.9852 20.366 89.2574 21.3839 88.122C21.8707 87.5785 22.092 87.3942 22.269 87.3942C22.4017 87.3942 22.8974 87.5494 23.3753 87.7435C25.8801 88.7528 27.907 89.3544 29.9958 89.6941C30.8986 89.8396 31.6243 89.8688 34.8195 89.859C40.1389 89.8493 40.8558 89.7717 45.7769 88.6169C46.6177 88.4131 46.7859 88.4228 47.016 88.6557C47.1665 88.811 47.2107 88.9663 47.2107 89.3738C47.2107 90.0434 47.4143 90.3346 47.9807 90.4898C49.0428 90.781 49.0517 90.781 49.1491 91.1012C49.2022 91.2662 49.2464 92.0231 49.2464 92.7897C49.2464 94.4589 49.3349 94.9538 49.7952 96.0212C50.4236 97.4672 51.9105 98.8355 52.716 98.719C52.9107 98.6899 53.1496 98.5832 53.247 98.4861C53.4683 98.2726 53.902 97.409 54.8313 95.342C55.4774 93.896 55.5394 93.7116 55.504 93.3138C55.4774 93.0712 55.3978 92.2172 55.3181 91.4214C55.1145 89.3059 54.9287 87.792 54.7782 87.006C54.5835 86.0065 54.61 85.4145 54.849 84.939C54.9818 84.6673 55.5482 84.1044 56.7254 83.0758C57.7875 82.1442 58.8319 81.1252 59.5577 80.3004C60.9473 78.7283 63.6114 75.4288 64.3194 74.4002C64.8593 73.6238 64.9744 73.5171 65.0364 73.7306C65.0541 73.7985 65.1868 74.2546 65.3196 74.7495C65.6913 76.1469 66.0542 76.3895 66.2401 75.3803C66.3994 74.5166 66.5056 74.1964 66.6561 74.1964C66.7711 74.1964 66.78 74.6137 66.7092 77.8161C66.6118 82.6876 66.6118 83.0175 66.7977 90.354C66.9216 95.109 66.9481 97.8456 66.9039 100.98C66.8596 103.853 66.8773 105.473 66.9393 106.036C67.0544 106.977 67.196 107.54 67.311 107.414C67.3907 107.327 67.5323 103.804 67.6562 98.6511C67.7005 96.652 67.7624 94.2939 67.789 93.4108C67.8155 92.5277 67.8775 89.5388 67.9217 86.7537C68.0457 79.3979 68.5236 66.8211 68.7272 65.6081C68.7803 65.2879 68.913 64.6086 69.037 64.0942C69.152 63.5799 69.2848 62.7356 69.3379 62.2019C69.5238 60.2902 69.9663 58.951 70.8071 57.7477C71.6214 56.5734 71.7542 56.0203 71.5329 54.5841C71.409 53.7204 71.524 52.9732 71.94 51.896C72.7012 49.9454 72.5507 48.6839 71.3824 47.2768C70.8868 46.6751 70.7717 46.4713 70.6744 46.0249C70.5327 45.3068 69.9751 44.0744 69.0724 42.4635C68.6652 41.7453 67.9394 40.2315 67.4615 39.1155C65.6117 34.8068 65.0452 33.6617 63.6733 31.4491C62.7086 29.8867 62.5847 29.615 62.6466 29.2366C62.6732 29.0813 63.3104 27.878 64.0539 26.5679C66.0808 22.987 67.0278 21.2597 67.2579 20.6968C67.5058 20.0757 67.6562 19.3188 67.6562 18.7074C67.6562 17.5235 66.6384 16.9898 65.5497 17.6109C64.7708 18.0573 64.4522 18.6492 64.0185 20.4154C63.7087 21.7061 63.6114 21.9001 62.3457 23.7148C61.9828 24.2389 61.5049 25.0443 61.2836 25.5101C60.7614 26.6164 60.6463 26.6649 59.9825 25.9565C59.717 25.6654 59.2125 25.0637 58.8673 24.6076C57.9645 23.4043 57.1502 22.5115 56.5749 22.0748C55.5394 21.2985 55.442 20.9394 55.7607 19.2121C55.9819 18.0475 55.9996 17.7758 55.9996 15.3886C56.0085 12.7102 55.9377 11.6233 55.5571 8.43063C55.3801 6.93618 55.3181 5.93664 55.2916 3.93756C55.265 2.52074 55.2119 1.2883 55.1676 1.19126C55.0703 0.99717 54.3534 0.579887 53.7692 0.385802C53.2116 0.201421 52.6894 0.395507 52.1406 0.987466C51.6007 1.56972 51.3441 2.16168 51.3618 2.82157C51.3795 3.86963 51.5034 4.58775 52.1052 7.14967C52.6274 9.37194 53.0169 13.6127 52.9461 16.2717C52.893 18.0961 52.7956 18.3872 52.2292 18.3969C51.9371 18.3969 51.4237 18.1155 50.3085 17.3294C48.8924 16.3396 47.8391 15.835 44.998 14.8063C40.369 13.1178 39.9442 13.0013 37.4305 12.7296C34.6336 12.4288 33.483 12.3414 32.0315 12.3414C30.3852 12.3317 30.3941 12.3317 28.7124 13.0984C28.1725 13.341 27.5795 13.506 26.6059 13.6806C25.2163 13.9329 23.4461 14.5152 22.384 15.0586C21.6317 15.4371 20.074 16.4658 19.1712 17.1645C18.1799 17.9214 17.3921 18.4163 17.2771 18.3387C17.1709 18.2707 17.2417 14.3114 17.3921 12.0406C17.5692 9.20697 18.0383 6.86825 19.1004 3.59791C19.5518 2.2102 19.5075 1.36593 18.9676 0.686634C18.4985 0.114083 17.3036 -0.16734 16.4186 0.104379ZM37.696 17.572C39.6786 17.8632 41.7674 18.4454 43.8474 19.28C45.352 19.8914 47.8037 21.2014 48.8747 21.9778C49.9191 22.7347 51.6273 24.1612 51.7955 24.4232C52.0256 24.792 51.9548 25.4616 51.5211 26.8493C50.397 30.5272 48.4498 33.6617 45.8831 35.9228C44.5643 37.0873 43.7589 37.5725 42.1657 38.1742C40.431 38.8244 40.1831 38.7952 39.7583 37.9316C39.4043 37.2232 39.3334 36.5342 39.3334 33.9431V31.5753L39.0768 31.2939C38.8378 31.0415 38.7581 31.0124 38.2005 31.0124C37.2092 31.0124 36.5543 31.5171 36.333 32.4584C36.2799 32.6525 36.2179 33.6132 36.1825 34.603C36.1383 35.9034 36.0852 36.4856 35.9878 36.7282C35.8019 37.1843 35.2266 37.6113 34.8195 37.6113C34.4035 37.6113 34.1822 37.359 33.8813 36.5342C33.6777 35.9907 33.6335 35.7093 33.5715 34.2634C33.4565 31.8179 33.3414 31.42 32.6333 31.0221C32.297 30.8378 31.6066 30.8863 31.2703 31.1386C30.7127 31.5559 30.6065 31.9149 30.5445 33.5647C30.5003 34.9233 30.2702 36.7379 30.04 37.6404C29.8542 38.3391 29.3585 38.4362 27.9601 38.0383C24.818 37.1455 21.5875 33.2638 19.6934 28.1012C18.5339 24.9085 18.0914 23.5984 18.0914 23.3073C18.0914 23.1229 18.171 22.8997 18.2861 22.7638C18.6313 22.3659 21.6406 20.2407 22.5611 19.7555C24.7384 18.6104 26.6413 18.0573 29.509 17.7176C30.0223 17.6594 30.9163 17.5429 31.5004 17.475C32.8546 17.3003 36.2091 17.3488 37.696 17.572ZM15.8167 25.5101C15.9406 25.6363 16.6752 27.5286 17.64 30.1585C18.9499 33.749 19.3393 34.7292 19.6934 35.2726C19.9323 35.6511 20.7378 36.6021 21.4724 37.3881C25.5969 41.7648 25.8801 42.1141 25.65 42.3664C25.4287 42.609 20.9856 40.0471 19.4013 38.7661C18.4454 37.9898 14.6395 33.6617 13.2942 31.8179C11.94 29.9741 11.8604 29.8285 11.94 29.4792C12.0905 28.8096 14.197 26.1797 15.0732 25.5586C15.5512 25.2287 15.5689 25.2287 15.8167 25.5101ZM55.4509 27.3054C56.0881 27.7615 57.8318 29.683 58.2212 30.3428C58.3717 30.6146 58.3805 30.6631 58.2566 30.9445C57.8583 31.8567 53.9197 36.4953 51.9636 38.3391C49.5031 40.6682 47.4497 42.1141 45.9716 42.5508C45.2016 42.774 44.5555 42.8904 44.5555 42.7934C44.5555 42.6964 46.2106 40.7361 48.0515 38.6788C50.7599 35.6414 51.0166 35.1756 53.2913 29.2657C53.7515 28.0623 54.1675 27.024 54.2206 26.9561C54.3976 26.7232 54.7959 26.8396 55.4509 27.3054ZM10.5416 32.9242C10.6389 33.0212 10.931 33.3997 11.1877 33.7781C12.4622 35.6025 14.4271 37.8928 16.7726 40.2897C19.0384 42.5993 19.357 42.871 21.3308 44.0453C22.685 44.8507 23.1806 45.0545 24.0391 45.1515C24.6056 45.2195 24.9685 45.3359 25.3756 45.5494C25.9421 45.8599 26.4023 46.2869 26.2873 46.4131C26.0837 46.6363 20.0209 46.4034 18.1622 46.0929C17.6665 46.0152 16.8257 45.957 16.2858 45.9667C15.144 45.9958 15.0644 45.957 14.0642 45.0836C13.7102 44.7828 13.1703 44.3558 12.8605 44.152C12.3029 43.7832 12.2763 43.7735 11.4532 43.7735C10.6478 43.7735 10.5858 43.7929 9.96627 44.152C9.05463 44.6857 8.51473 45.2486 8.14299 46.054C7.7447 46.9371 7.61194 47.6552 7.67389 48.6257C7.75355 49.7999 8.01023 50.4015 8.98382 51.7504C9.69189 52.7306 9.70959 52.7791 9.77155 53.7204C9.8158 54.4967 9.83351 54.5453 10.0636 54.6908C10.2938 54.8267 10.3203 54.8267 10.4442 54.652C10.5239 54.5258 10.5681 54.225 10.5681 53.8368C10.5681 53.4972 10.6124 53.1381 10.6655 53.0217C10.7982 52.7403 11.3736 52.4977 12.3029 52.323C13.6305 52.0707 14.3563 51.5758 14.8342 50.5859C15.1971 49.8387 15.5689 49.6058 16.7195 49.3923C17.7462 49.1982 19.8969 49.2467 21.4901 49.4893C22.8531 49.7028 23.0124 49.926 22.2601 50.5471C21.7291 50.9935 21.3219 51.5661 20.4634 53.0896C18.9056 55.8262 18.348 57.146 17.6931 59.6303C17.0912 61.9302 16.8522 63.3179 16.6398 65.8022C16.5425 66.8697 16.4451 67.481 16.2681 68.0342L16.0291 68.7911L16.2238 69.4607C16.7549 71.2754 16.5867 71.8965 14.5333 75.7199C13.5597 77.5249 13.5155 77.554 12.7631 76.5933C11.4532 74.9436 10.1698 72.8184 9.01038 70.3632C8.61209 69.5092 8.01023 68.1118 7.68275 67.2578C7.14284 65.8313 7.08974 65.6469 7.08089 64.9773C7.07204 64.3369 7.11629 64.1622 7.38182 63.5217C7.62964 62.9297 7.6916 62.6483 7.71815 61.9981C7.7624 61.0083 7.59424 60.4163 6.76225 58.5725C5.10714 54.9431 4.98323 53.3225 5.79751 46.4422C5.99223 44.7634 6.1604 43.7056 6.37282 42.8225C6.49673 42.2888 9.09003 35.0397 9.64764 33.6423C10.0017 32.7689 10.2141 32.6039 10.5416 32.9242ZM60.6552 33.7879C60.8056 33.9237 61.1951 34.4574 61.5226 34.9718C61.85 35.4861 62.266 36.1169 62.4519 36.3595C63.0272 37.1164 63.0803 37.6404 62.7794 39.6395C62.5758 41.0563 62.4165 41.5221 62.0448 41.8327C61.7969 42.0365 60.3808 42.609 58.7345 43.1525C57.9557 43.4145 57.6724 43.725 57.3892 44.6372C57.2919 44.9769 57.1237 45.3747 57.0263 45.5106C56.7165 45.9473 56.336 45.9861 53.5391 45.9182C50.6891 45.8405 50.3705 45.8794 48.9809 46.4422C47.8745 46.8886 46.7239 47.1991 45.6884 47.3156C44.7236 47.4223 43.573 47.3447 43.5199 47.1603C43.4845 47.0536 44.2457 46.7916 45.3963 46.5101C47.0868 46.1026 49.0871 44.9089 51.1936 43.0554C52.238 42.1335 55.858 38.2421 57.46 36.3013C59.478 33.8655 59.7966 33.5355 60.1153 33.5355C60.2746 33.5355 60.4959 33.6326 60.6552 33.7879ZM55.1411 49.1109C56.8759 49.4408 58.1858 50.1589 59.4072 51.4302C60.2834 52.3424 60.2834 52.3521 60.3897 54.3415C60.5844 57.9126 60.5047 58.9801 59.8586 61.3965C59.6639 62.1243 59.478 63.0462 59.4338 63.4538C59.3895 63.8516 59.3895 65.9186 59.4338 68.0536C59.5754 75.4967 59.5842 74.9533 59.3099 75.5259C59.0001 76.176 57.0617 78.3789 56.1147 79.165C55.2739 79.854 55.0349 79.9995 54.9021 79.854C54.7251 79.6599 54.4861 77.7093 54.433 75.9917C54.3711 74.0799 54.2029 71.9256 53.9374 69.4413C53.8489 68.5582 53.725 67.054 53.6718 66.0933C53.6276 65.1326 53.5568 64.1234 53.5302 63.8613C53.4506 63.0947 53.1408 61.6973 52.8753 60.8918C52.5655 59.9893 50.6537 55.2343 50.2908 54.487C49.7775 53.4099 49.1668 52.8955 47.3877 52.061C47.1222 51.9348 46.7416 51.7116 46.5469 51.5563C46.1221 51.2361 45.4936 50.4209 45.591 50.3239C45.6264 50.2851 45.8034 50.1978 45.9716 50.1395C46.3699 50.0037 50.0784 49.2758 51.2379 49.1109C52.477 48.9362 54.2029 48.9362 55.1411 49.1109ZM29.8984 57.0393C29.7745 64.0748 29.7834 64.2495 30.0135 64.5018C30.2348 64.7444 30.6153 64.6959 30.695 64.4145C30.7127 64.3271 30.7835 62.92 30.8366 61.2897C30.9428 58.1649 30.9694 57.8544 31.1021 57.9417C31.1552 57.9806 31.1906 58.7181 31.1906 59.7273C31.1906 61.61 31.2261 61.7652 31.6686 61.6391C31.9518 61.5614 31.9872 61.4256 32.0757 60.0767C32.2173 57.8738 32.651 56.0494 32.9962 56.1756C33.067 56.2047 33.1024 57.408 33.1201 60.5425C33.129 62.9297 33.1555 64.8803 33.1732 64.8803C33.3768 64.8803 33.7043 64.628 33.8459 64.3757C34.0052 64.0845 34.0229 63.8808 34.0229 62.1922C34.0229 61.1733 34.0583 60.3096 34.1026 60.2805C34.1468 60.2514 34.1999 60.494 34.2176 60.8239C34.253 61.3188 34.2973 61.4547 34.5009 61.6488C34.9169 62.0369 35.6603 61.9205 36.0409 61.3965C36.2445 61.1247 36.3064 61.445 36.2622 62.4639C36.2002 63.5508 36.3153 64.1719 36.6339 64.4921L36.8375 64.7056L36.926 64.1816C36.9791 63.9002 37.0411 62.8618 37.0765 61.872C37.1827 58.4173 37.4217 55.6612 37.6164 55.6612C37.7668 55.6612 37.7845 55.8359 38.0147 58.427C38.1209 59.6012 38.2359 60.6395 38.2802 60.7269C38.3598 60.9015 38.5015 60.9404 38.8289 60.9015C38.9883 60.8918 38.9883 61.2218 38.9617 69.3345C38.944 75.9917 38.9617 77.8064 39.0502 77.8937C39.3688 78.2528 39.3777 78.0101 39.422 69.8101C39.4574 63.5508 39.4928 61.8332 39.5813 61.7943C39.6609 61.7652 39.6875 62.0272 39.6875 62.8909C39.6875 64.0069 39.6875 64.0166 39.891 63.9875L40.0858 63.9584L40.1477 60.7075C40.2274 56.0203 40.2362 55.8553 40.5106 55.341C41.1302 54.1862 42.325 53.8466 43.8208 54.4094C45.5733 55.0596 47.7241 57.5633 48.8393 60.2514C49.5208 61.8817 49.7155 62.8133 50.2112 66.7241C50.4147 68.2962 50.6183 69.8683 50.6803 70.2079C50.7776 70.8387 50.7776 71.0813 50.574 78.7671C50.459 83.2116 50.3705 83.5125 49.0251 84.1918C46.9363 85.2495 44.2811 86.0453 40.4221 86.7634C37.7668 87.2486 34.3593 87.433 32.2439 87.1904C29.4736 86.8895 26.2607 85.8512 22.8797 84.1821C21.0476 83.2796 20.9236 83.2116 20.7289 82.9108C20.6404 82.7846 20.4722 82.1539 20.3483 81.494C20.2333 80.8438 20.012 79.9995 19.8615 79.6211C19.4455 78.5827 19.357 77.884 19.2508 74.8272C19.0915 70.0624 19.3305 66.7338 20.0917 63.085C20.5873 60.7366 21.5078 58.6502 22.7558 57.0975C23.986 55.5545 25.2517 54.5938 27.5706 53.4196C29.1727 52.6141 29.4824 52.4783 29.7657 52.4685L29.9692 52.4588L29.8984 57.0393ZM62.1067 61.6876C62.1333 61.804 62.2306 63.3373 62.3191 65.0938C62.4962 68.7135 62.5316 68.8979 63.0803 68.8396C63.3104 68.8202 63.399 68.7329 63.5671 68.3932C63.7972 67.9371 63.8415 67.5101 64.0274 63.9584C64.1247 62.0175 64.1867 61.4838 64.284 61.4838C64.3814 61.4838 64.6292 62.3378 64.7443 63.0365C64.9036 64.036 64.8593 66.1418 64.6558 67.1899C64.3725 68.6455 63.7087 69.7809 61.7792 72.11C61.2039 72.799 61.257 72.896 61.0977 70.7514C60.8145 66.9667 61.0446 63.6964 61.735 61.6973C61.8323 61.4256 62.0448 61.4159 62.1067 61.6876Z" fill="#0A0A0A" fill-opacity="0.4"/>
</svg>
